<?xml version="1.0" encoding="utf-8" standalone="no"?>
<!DOCTYPE svg PUBLIC "-//W3C//DTD SVG 1.1//EN"
  "http://www.w3.org/Graphics/SVG/1.1/DTD/svg11.dtd">
<svg xmlns:xlink="http://www.w3.org/1999/xlink" width="252.015923pt" height="181.300406pt" viewBox="0 0 252.015923 181.300406" xmlns="http://www.w3.org/2000/svg" version="1.1">
 <metadata>
  <rdf:RDF xmlns:dc="http://purl.org/dc/elements/1.1/" xmlns:cc="http://creativecommons.org/ns#" xmlns:rdf="http://www.w3.org/1999/02/22-rdf-syntax-ns#">
   <cc:Work>
    <dc:type rdf:resource="http://purl.org/dc/dcmitype/StillImage"/>
    <dc:date>2026-08-06T23:13:15.300670</dc:date>
    <dc:format>image/svg+xml</dc:format>
    <dc:creator>
     <cc:Agent>
      <dc:title>Matplotlib v3.11.1, https://matplotlib.org/</dc:title>
     </cc:Agent>
    </dc:creator>
   </cc:Work>
  </rdf:RDF>
 </metadata>
 <defs>
  <style type="text/css">*{stroke-linejoin: round; stroke-linecap: butt}</style>
 </defs>
 <g id="figure_1">
  <g id="patch_1">
   <path d="M 0 181.300406 
L 252.015923 181.300406 
L 252.015923 0 
L 0 0 
z
" style="fill: #ffffff"/>
  </g>
  <g id="axes_1">
   <g id="patch_2">
    <path d="M 37.151738 146.982105 
L 244.815923 146.982105 
L 244.815923 19.9075 
L 37.151738 19.9075 
z
" style="fill: #ffffff"/>
   </g>
   <g id="matplotlib.axis_1">
    <g id="xtick_1">
     <g id="line2d_1">
      <defs>
       <path id="m4c7578f4ba" d="M 0 0 
L 0 3.5 
" style="stroke: #000000; stroke-width: 0.8"/>
      </defs>
      <g>
       <use xlink:href="#m4c7578f4ba" x="46.591019" y="146.982105" style="stroke: #000000; stroke-width: 0.8"/>
      </g>
     </g>
     <g id="text_1">
      <text style="font-size: 8px; font-family: 'Microsoft YaHei', 'Arial', 'Helvetica', 'DejaVu Sans', 'Liberation Sans', sans-serif; text-anchor: middle" x="46.591019" y="160.478199" transform="rotate(-0 46.591019 160.478199)">0</text>
     </g>
    </g>
    <g id="xtick_2">
     <g id="line2d_2">
      <g>
       <use xlink:href="#m4c7578f4ba" x="94.024593" y="146.982105" style="stroke: #000000; stroke-width: 0.8"/>
      </g>
     </g>
     <g id="text_2">
      <text style="font-size: 8px; font-family: 'Microsoft YaHei', 'Arial', 'Helvetica', 'DejaVu Sans', 'Liberation Sans', sans-serif; text-anchor: middle" x="94.024593" y="160.478199" transform="rotate(-0 94.024593 160.478199)">50</text>
     </g>
    </g>
    <g id="xtick_3">
     <g id="line2d_3">
      <g>
       <use xlink:href="#m4c7578f4ba" x="141.458166" y="146.982105" style="stroke: #000000; stroke-width: 0.8"/>
      </g>
     </g>
     <g id="text_3">
      <text style="font-size: 8px; font-family: 'Microsoft YaHei', 'Arial', 'Helvetica', 'DejaVu Sans', 'Liberation Sans', sans-serif; text-anchor: middle" x="141.458166" y="160.478199" transform="rotate(-0 141.458166 160.478199)">100</text>
     </g>
    </g>
    <g id="xtick_4">
     <g id="line2d_4">
      <g>
       <use xlink:href="#m4c7578f4ba" x="188.89174" y="146.982105" style="stroke: #000000; stroke-width: 0.8"/>
      </g>
     </g>
     <g id="text_4">
      <text style="font-size: 8px; font-family: 'Microsoft YaHei', 'Arial', 'Helvetica', 'DejaVu Sans', 'Liberation Sans', sans-serif; text-anchor: middle" x="188.89174" y="160.478199" transform="rotate(-0 188.89174 160.478199)">150</text>
     </g>
    </g>
    <g id="xtick_5">
     <g id="line2d_5">
      <g>
       <use xlink:href="#m4c7578f4ba" x="236.325313" y="146.982105" style="stroke: #000000; stroke-width: 0.8"/>
      </g>
     </g>
     <g id="text_5">
      <text style="font-size: 8px; font-family: 'Microsoft YaHei', 'Arial', 'Helvetica', 'DejaVu Sans', 'Liberation Sans', sans-serif; text-anchor: middle" x="236.325313" y="160.478199" transform="rotate(-0 236.325313 160.478199)">200</text>
     </g>
    </g>
    <g id="text_6">
     <text style="font-size: 7px; font-family: 'Microsoft YaHei', 'Arial', 'Helvetica', 'DejaVu Sans', 'Liberation Sans', sans-serif; text-anchor: middle" x="140.983831" y="172.32648" transform="rotate(-0 140.983831 172.32648)">迭代</text>
    </g>
   </g>
   <g id="matplotlib.axis_2">
    <g id="ytick_1">
     <g id="line2d_6">
      <defs>
       <path id="mbb5a4f85bc" d="M 0 0 
L -3.5 0 
" style="stroke: #000000; stroke-width: 0.8"/>
      </defs>
      <g>
       <use xlink:href="#mbb5a4f85bc" x="37.151738" y="141.521953" style="stroke: #000000; stroke-width: 0.8"/>
      </g>
     </g>
     <g id="text_7">
      <text style="font-size: 8px; font-family: 'Microsoft YaHei', 'Arial', 'Helvetica', 'DejaVu Sans', 'Liberation Sans', sans-serif; text-anchor: end" x="30.151738" y="144.77" transform="rotate(-0 30.151738 144.77)">0.0</text>
     </g>
    </g>
    <g id="ytick_2">
     <g id="line2d_7">
      <g>
       <use xlink:href="#mbb5a4f85bc" x="37.151738" y="120.812542" style="stroke: #000000; stroke-width: 0.8"/>
      </g>
     </g>
     <g id="text_8">
      <text style="font-size: 8px; font-family: 'Microsoft YaHei', 'Arial', 'Helvetica', 'DejaVu Sans', 'Liberation Sans', sans-serif; text-anchor: end" x="30.151738" y="124.060589" transform="rotate(-0 30.151738 124.060589)">0.2</text>
     </g>
    </g>
    <g id="ytick_3">
     <g id="line2d_8">
      <g>
       <use xlink:href="#mbb5a4f85bc" x="37.151738" y="100.103131" style="stroke: #000000; stroke-width: 0.8"/>
      </g>
     </g>
     <g id="text_9">
      <text style="font-size: 8px; font-family: 'Microsoft YaHei', 'Arial', 'Helvetica', 'DejaVu Sans', 'Liberation Sans', sans-serif; text-anchor: end" x="30.151738" y="103.351178" transform="rotate(-0 30.151738 103.351178)">0.4</text>
     </g>
    </g>
    <g id="ytick_4">
     <g id="line2d_9">
      <g>
       <use xlink:href="#mbb5a4f85bc" x="37.151738" y="79.39372" style="stroke: #000000; stroke-width: 0.8"/>
      </g>
     </g>
     <g id="text_10">
      <text style="font-size: 8px; font-family: 'Microsoft YaHei', 'Arial', 'Helvetica', 'DejaVu Sans', 'Liberation Sans', sans-serif; text-anchor: end" x="30.151738" y="82.641767" transform="rotate(-0 30.151738 82.641767)">0.6</text>
     </g>
    </g>
    <g id="ytick_5">
     <g id="line2d_10">
      <g>
       <use xlink:href="#mbb5a4f85bc" x="37.151738" y="58.684309" style="stroke: #000000; stroke-width: 0.8"/>
      </g>
     </g>
     <g id="text_11">
      <text style="font-size: 8px; font-family: 'Microsoft YaHei', 'Arial', 'Helvetica', 'DejaVu Sans', 'Liberation Sans', sans-serif; text-anchor: end" x="30.151738" y="61.932356" transform="rotate(-0 30.151738 61.932356)">0.8</text>
     </g>
    </g>
    <g id="ytick_6">
     <g id="line2d_11">
      <g>
       <use xlink:href="#mbb5a4f85bc" x="37.151738" y="37.974899" style="stroke: #000000; stroke-width: 0.8"/>
      </g>
     </g>
     <g id="text_12">
      <text style="font-size: 8px; font-family: 'Microsoft YaHei', 'Arial', 'Helvetica', 'DejaVu Sans', 'Liberation Sans', sans-serif; text-anchor: end" x="30.151738" y="41.222946" transform="rotate(-0 30.151738 41.222946)">1.0</text>
     </g>
    </g>
    <g id="text_13">
     <text style="font-size: 7px; font-family: 'Microsoft YaHei', 'Arial', 'Helvetica', 'DejaVu Sans', 'Liberation Sans', sans-serif; text-anchor: middle" x="13.069063" y="83.444803" transform="rotate(-90 13.069063 83.444803)">训练损失</text>
    </g>
   </g>
   <g id="line2d_12">
    <path d="M 46.591019 43.289147 
L 47.539691 70.843792 
L 48.488362 88.504057 
L 49.437034 102.422618 
L 50.385705 112.198298 
L 51.334377 118.485414 
L 52.283048 122.460609 
L 53.23172 125.121345 
L 54.180391 127.107869 
L 55.129063 128.552989 
L 56.077734 129.740357 
L 57.026406 130.686773 
L 57.975077 131.45325 
L 59.87242 132.637643 
L 61.769763 133.485892 
L 65.564449 134.588892 
L 69.359135 135.376291 
L 76.948506 136.412188 
L 80.743192 136.845099 
L 84.537878 137.176124 
L 88.332564 137.544302 
L 102.562636 138.571838 
L 108.254665 138.889272 
L 131.971452 139.906083 
L 159.482924 140.515983 
L 170.866982 140.679955 
L 209.762512 141.060778 
L 219.249227 141.120201 
L 235.376642 141.205987 
L 235.376642 141.205987 
" clip-path="url(#p83ce981666)" style="fill: none; stroke: #1f77b4; stroke-width: 1.5; stroke-linecap: square"/>
   </g>
   <g id="line2d_13">
    <path d="M 46.591019 30.101973 
L 47.539691 41.594788 
L 48.488362 51.235417 
L 49.437034 59.689304 
L 51.334377 72.886709 
L 53.23172 83.53131 
L 55.129063 92.658962 
L 57.026406 100.666 
L 58.923748 107.219036 
L 59.87242 110.000153 
L 61.769763 114.557117 
L 62.718434 116.476159 
L 64.615777 119.536857 
L 66.51312 121.93756 
L 68.410463 123.794934 
L 70.307806 125.387875 
L 72.205149 126.688486 
L 75.051163 128.292146 
L 77.897178 129.552339 
L 80.743192 130.569156 
L 84.537878 131.66039 
L 87.383893 132.306731 
L 92.12725 133.184772 
L 98.76795 134.071231 
L 105.40865 134.732048 
L 117.74138 135.603198 
L 127.228094 136.136536 
L 147.150195 136.990953 
L 167.072296 137.660545 
L 209.762512 138.791651 
L 235.376642 139.289729 
L 235.376642 139.289729 
" clip-path="url(#p83ce981666)" style="fill: none; stroke: #ff7f0e; stroke-width: 1.5; stroke-linecap: square"/>
   </g>
   <g id="line2d_14">
    <path d="M 46.591019 25.683618 
L 48.488362 33.082905 
L 50.385705 39.80668 
L 52.283048 46.010466 
L 54.180391 51.674734 
L 56.077734 56.806893 
L 58.923748 63.661543 
L 60.821091 67.729018 
L 62.718434 71.524513 
L 66.51312 78.323453 
L 69.359135 82.95635 
L 72.205149 87.307066 
L 75.999835 92.670179 
L 79.794521 97.548468 
L 82.640535 100.913784 
L 85.48655 103.96217 
L 88.332564 106.771245 
L 92.12725 110.107444 
L 95.921936 112.985814 
L 98.76795 114.861995 
L 101.613965 116.537537 
L 104.459979 118.018499 
L 108.254665 119.7655 
L 112.998022 121.627628 
L 117.74138 123.185314 
L 123.433408 124.756837 
L 129.125437 126.076672 
L 135.766137 127.376336 
L 144.304181 128.748232 
L 152.842224 129.880101 
L 164.226281 131.099078 
L 172.764325 131.821167 
L 191.737754 133.055489 
L 211.659855 133.998521 
L 228.735941 134.620848 
L 235.376642 134.8321 
L 235.376642 134.8321 
" clip-path="url(#p83ce981666)" style="fill: none; stroke: #2ca02c; stroke-width: 1.5; stroke-linecap: square"/>
   </g>
   <g id="patch_3">
    <path d="M 37.151738 146.982105 
L 37.151738 19.9075 
" style="fill: none; stroke: #000000; stroke-width: 0.8; stroke-linejoin: miter; stroke-linecap: square"/>
   </g>
   <g id="patch_4">
    <path d="M 37.151738 146.982105 
L 244.815923 146.982105 
" style="fill: none; stroke: #000000; stroke-width: 0.8; stroke-linejoin: miter; stroke-linecap: square"/>
   </g>
   <g id="text_14">
    <text style="font-size: 8px; font-family: 'Microsoft YaHei', 'Arial', 'Helvetica', 'DejaVu Sans', 'Liberation Sans', sans-serif; text-anchor: middle" x="140.983831" y="13.9075" transform="rotate(-0 140.983831 13.9075)">不同Batch Size下MLP训练损失曲线</text>
   </g>
   <g id="legend_1">
    <g id="line2d_15">
     <path d="M 182.839673 29.441582 
L 189.839673 29.441582 
L 196.839673 29.441582 
" style="fill: none; stroke: #1f77b4; stroke-width: 1.5; stroke-linecap: square"/>
    </g>
    <g id="text_15">
     <text style="font-size: 7px; font-family: 'Microsoft YaHei', 'Arial', 'Helvetica', 'DejaVu Sans', 'Liberation Sans', sans-serif; text-anchor: start" x="202.439673" y="31.891582" transform="rotate(-0 202.439673 31.891582)">batch=16</text>
    </g>
    <g id="line2d_16">
     <path d="M 182.839673 40.39959 
L 189.839673 40.39959 
L 196.839673 40.39959 
" style="fill: none; stroke: #ff7f0e; stroke-width: 1.5; stroke-linecap: square"/>
    </g>
    <g id="text_16">
     <text style="font-size: 7px; font-family: 'Microsoft YaHei', 'Arial', 'Helvetica', 'DejaVu Sans', 'Liberation Sans', sans-serif; text-anchor: start" x="202.439673" y="42.84959" transform="rotate(-0 202.439673 42.84959)">batch=64</text>
    </g>
    <g id="line2d_17">
     <path d="M 182.839673 51.357598 
L 189.839673 51.357598 
L 196.839673 51.357598 
" style="fill: none; stroke: #2ca02c; stroke-width: 1.5; stroke-linecap: square"/>
    </g>
    <g id="text_17">
     <text style="font-size: 7px; font-family: 'Microsoft YaHei', 'Arial', 'Helvetica', 'DejaVu Sans', 'Liberation Sans', sans-serif; text-anchor: start" x="202.439673" y="53.807598" transform="rotate(-0 202.439673 53.807598)">batch=256</text>
    </g>
   </g>
  </g>
 </g>
 <defs>
  <clipPath id="p83ce981666">
   <rect x="37.151738" y="19.9075" width="207.664184" height="127.074605"/>
  </clipPath>
 </defs>
</svg>
