<?xml version="1.0" encoding="utf-8" standalone="no"?>
<!DOCTYPE svg PUBLIC "-//W3C//DTD SVG 1.1//EN"
  "http://www.w3.org/Graphics/SVG/1.1/DTD/svg11.dtd">
<svg xmlns:xlink="http://www.w3.org/1999/xlink" width="252.422329pt" height="181.076656pt" viewBox="0 0 252.422329 181.076656" xmlns="http://www.w3.org/2000/svg" version="1.1">
 <metadata>
  <rdf:RDF xmlns:dc="http://purl.org/dc/elements/1.1/" xmlns:cc="http://creativecommons.org/ns#" xmlns:rdf="http://www.w3.org/1999/02/22-rdf-syntax-ns#">
   <cc:Work>
    <dc:type rdf:resource="http://purl.org/dc/dcmitype/StillImage"/>
    <dc:date>2026-08-06T22:51:02.981566</dc:date>
    <dc:format>image/svg+xml</dc:format>
    <dc:creator>
     <cc:Agent>
      <dc:title>Matplotlib v3.11.1, https://matplotlib.org/</dc:title>
     </cc:Agent>
    </dc:creator>
   </cc:Work>
  </rdf:RDF>
 </metadata>
 <defs>
  <style type="text/css">*{stroke-linejoin: round; stroke-linecap: butt}</style>
 </defs>
 <g id="figure_1">
  <g id="patch_1">
   <path d="M 0 181.076656 
L 252.422329 181.076656 
L 252.422329 0 
L 0 0 
z
" style="fill: #ffffff"/>
  </g>
  <g id="axes_1">
   <g id="patch_2">
    <path d="M 36.057363 148.63148 
L 245.222329 148.63148 
L 245.222329 19.21625 
L 36.057363 19.21625 
z
" style="fill: #ffffff"/>
   </g>
   <g id="matplotlib.axis_1">
    <g id="xtick_1">
     <g id="line2d_1">
      <defs>
       <path id="mafbc3ed930" d="M 0 0 
L 0 3.5 
" style="stroke: #000000; stroke-width: 0.8"/>
      </defs>
      <g>
       <use xlink:href="#mafbc3ed930" x="45.564862" y="148.63148" style="stroke: #000000; stroke-width: 0.8"/>
      </g>
     </g>
     <g id="text_1">
      <text style="font-size: 8px; font-family: 'Arial', 'Helvetica', 'DejaVu Sans', 'Liberation Sans', sans-serif; text-anchor: middle" x="45.564862" y="161.455699" transform="rotate(-0 45.564862 161.455699)">0</text>
     </g>
    </g>
    <g id="xtick_2">
     <g id="line2d_2">
      <g>
       <use xlink:href="#mafbc3ed930" x="93.341236" y="148.63148" style="stroke: #000000; stroke-width: 0.8"/>
      </g>
     </g>
     <g id="text_2">
      <text style="font-size: 8px; font-family: 'Arial', 'Helvetica', 'DejaVu Sans', 'Liberation Sans', sans-serif; text-anchor: middle" x="93.341236" y="161.455699" transform="rotate(-0 93.341236 161.455699)">50</text>
     </g>
    </g>
    <g id="xtick_3">
     <g id="line2d_3">
      <g>
       <use xlink:href="#mafbc3ed930" x="141.11761" y="148.63148" style="stroke: #000000; stroke-width: 0.8"/>
      </g>
     </g>
     <g id="text_3">
      <text style="font-size: 8px; font-family: 'Arial', 'Helvetica', 'DejaVu Sans', 'Liberation Sans', sans-serif; text-anchor: middle" x="141.11761" y="161.455699" transform="rotate(-0 141.11761 161.455699)">100</text>
     </g>
    </g>
    <g id="xtick_4">
     <g id="line2d_4">
      <g>
       <use xlink:href="#mafbc3ed930" x="188.893984" y="148.63148" style="stroke: #000000; stroke-width: 0.8"/>
      </g>
     </g>
     <g id="text_4">
      <text style="font-size: 8px; font-family: 'Arial', 'Helvetica', 'DejaVu Sans', 'Liberation Sans', sans-serif; text-anchor: middle" x="188.893984" y="161.455699" transform="rotate(-0 188.893984 161.455699)">150</text>
     </g>
    </g>
    <g id="xtick_5">
     <g id="line2d_5">
      <g>
       <use xlink:href="#mafbc3ed930" x="236.670358" y="148.63148" style="stroke: #000000; stroke-width: 0.8"/>
      </g>
     </g>
     <g id="text_5">
      <text style="font-size: 8px; font-family: 'Arial', 'Helvetica', 'DejaVu Sans', 'Liberation Sans', sans-serif; text-anchor: middle" x="236.670358" y="161.455699" transform="rotate(-0 236.670358 161.455699)">200</text>
     </g>
    </g>
    <g id="text_6">
     <text style="font-size: 7px; font-family: 'Arial', 'Helvetica', 'DejaVu Sans', 'Liberation Sans', sans-serif; text-anchor: middle" x="140.639846" y="172.403511" transform="rotate(-0 140.639846 172.403511)">迭代</text>
    </g>
   </g>
   <g id="matplotlib.axis_2">
    <g id="ytick_1">
     <g id="line2d_6">
      <defs>
       <path id="mb1b1cd93fc" d="M 0 0 
L -3.5 0 
" style="stroke: #000000; stroke-width: 0.8"/>
      </defs>
      <g>
       <use xlink:href="#mb1b1cd93fc" x="36.057363" y="143.070756" style="stroke: #000000; stroke-width: 0.8"/>
      </g>
     </g>
     <g id="text_7">
      <text style="font-size: 8px; font-family: 'Arial', 'Helvetica', 'DejaVu Sans', 'Liberation Sans', sans-serif; text-anchor: end" x="29.057363" y="145.982865" transform="rotate(-0 29.057363 145.982865)">0.0</text>
     </g>
    </g>
    <g id="ytick_2">
     <g id="line2d_7">
      <g>
       <use xlink:href="#mb1b1cd93fc" x="36.057363" y="121.979892" style="stroke: #000000; stroke-width: 0.8"/>
      </g>
     </g>
     <g id="text_8">
      <text style="font-size: 8px; font-family: 'Arial', 'Helvetica', 'DejaVu Sans', 'Liberation Sans', sans-serif; text-anchor: end" x="29.057363" y="124.892001" transform="rotate(-0 29.057363 124.892001)">0.2</text>
     </g>
    </g>
    <g id="ytick_3">
     <g id="line2d_8">
      <g>
       <use xlink:href="#mb1b1cd93fc" x="36.057363" y="100.889028" style="stroke: #000000; stroke-width: 0.8"/>
      </g>
     </g>
     <g id="text_9">
      <text style="font-size: 8px; font-family: 'Arial', 'Helvetica', 'DejaVu Sans', 'Liberation Sans', sans-serif; text-anchor: end" x="29.057363" y="103.801138" transform="rotate(-0 29.057363 103.801138)">0.4</text>
     </g>
    </g>
    <g id="ytick_4">
     <g id="line2d_9">
      <g>
       <use xlink:href="#mb1b1cd93fc" x="36.057363" y="79.798165" style="stroke: #000000; stroke-width: 0.8"/>
      </g>
     </g>
     <g id="text_10">
      <text style="font-size: 8px; font-family: 'Arial', 'Helvetica', 'DejaVu Sans', 'Liberation Sans', sans-serif; text-anchor: end" x="29.057363" y="82.710274" transform="rotate(-0 29.057363 82.710274)">0.6</text>
     </g>
    </g>
    <g id="ytick_5">
     <g id="line2d_10">
      <g>
       <use xlink:href="#mb1b1cd93fc" x="36.057363" y="58.707301" style="stroke: #000000; stroke-width: 0.8"/>
      </g>
     </g>
     <g id="text_11">
      <text style="font-size: 8px; font-family: 'Arial', 'Helvetica', 'DejaVu Sans', 'Liberation Sans', sans-serif; text-anchor: end" x="29.057363" y="61.61941" transform="rotate(-0 29.057363 61.61941)">0.8</text>
     </g>
    </g>
    <g id="ytick_6">
     <g id="line2d_11">
      <g>
       <use xlink:href="#mb1b1cd93fc" x="36.057363" y="37.616437" style="stroke: #000000; stroke-width: 0.8"/>
      </g>
     </g>
     <g id="text_12">
      <text style="font-size: 8px; font-family: 'Arial', 'Helvetica', 'DejaVu Sans', 'Liberation Sans', sans-serif; text-anchor: end" x="29.057363" y="40.528547" transform="rotate(-0 29.057363 40.528547)">1.0</text>
     </g>
    </g>
    <g id="text_13">
     <text style="font-size: 7px; font-family: 'Arial', 'Helvetica', 'DejaVu Sans', 'Liberation Sans', sans-serif; text-anchor: middle" x="12.464219" y="83.923865" transform="rotate(-90 12.464219 83.923865)">训练损失</text>
    </g>
   </g>
   <g id="line2d_12">
    <path d="M 45.564862 43.028571 
L 46.520389 71.090752 
L 47.475917 89.076307 
L 48.431444 103.251239 
L 49.386972 113.20698 
L 50.342499 119.6099 
L 51.298027 123.658315 
L 52.253554 126.36806 
L 53.209082 128.391174 
L 54.164609 129.862913 
L 55.120137 131.072151 
L 56.075664 132.035999 
L 57.031192 132.816594 
L 58.942246 134.022803 
L 60.853301 134.886676 
L 63.719884 135.779862 
L 66.586466 136.451046 
L 69.453049 136.955897 
L 74.230686 137.634437 
L 87.608071 139.01984 
L 101.940983 140.066302 
L 107.674148 140.389583 
L 131.562335 141.425123 
L 159.272632 142.046257 
L 170.738962 142.213249 
L 209.915589 142.601086 
L 219.470863 142.661604 
L 235.714831 142.74897 
L 235.714831 142.74897 
" clip-path="url(#pa53d0dba60)" style="fill: none; stroke: #1f77b4; stroke-width: 1.5; stroke-linecap: square"/>
   </g>
   <g id="line2d_13">
    <path d="M 45.564862 29.598498 
L 46.520389 41.303003 
L 47.475917 51.121205 
L 48.431444 59.730807 
L 50.342499 73.171299 
L 52.253554 84.011966 
L 54.164609 93.307743 
L 56.075664 101.462264 
L 57.986719 108.136003 
L 58.942246 110.968346 
L 60.853301 115.609246 
L 61.808829 117.563636 
L 63.719884 120.68071 
L 65.630939 123.125632 
L 67.541994 125.017218 
L 69.453049 126.639499 
L 71.364104 127.964066 
L 74.230686 129.597265 
L 77.097269 130.88067 
L 79.963851 131.916216 
L 83.785961 133.02755 
L 86.652543 133.685796 
L 91.430181 134.58001 
L 98.118873 135.482797 
L 104.807566 136.155785 
L 116.273895 136.986071 
L 132.517863 137.854679 
L 152.58394 138.663558 
L 205.137951 140.178779 
L 225.204028 140.605767 
L 235.714831 140.797416 
L 235.714831 140.797416 
" clip-path="url(#pa53d0dba60)" style="fill: none; stroke: #ff7f0e; stroke-width: 1.5; stroke-linecap: square"/>
   </g>
   <g id="line2d_14">
    <path d="M 45.564862 25.09876 
L 47.475917 32.634337 
L 49.386972 39.481959 
L 51.298027 45.800014 
L 53.209082 51.568615 
L 55.120137 56.795304 
L 57.986719 63.776212 
L 59.897774 67.918606 
L 61.808829 71.784012 
L 65.630939 78.708184 
L 68.497521 83.426416 
L 71.364104 87.857268 
L 75.186214 93.319167 
L 79.008324 98.28731 
L 81.874906 101.714613 
L 84.741488 104.819148 
L 87.608071 107.679964 
L 91.430181 111.077614 
L 95.252291 114.009002 
L 98.118873 115.91974 
L 100.985456 117.626145 
L 103.852038 119.134385 
L 107.674148 120.913564 
L 112.451785 122.809992 
L 117.229423 124.396369 
L 122.962588 125.996838 
L 128.695753 127.340983 
L 135.384445 128.664586 
L 143.984192 130.061752 
L 152.58394 131.214469 
L 163.094742 132.365365 
L 173.605544 133.259127 
L 185.071874 134.054763 
L 201.315841 134.948284 
L 219.470863 135.703454 
L 235.714831 136.25768 
L 235.714831 136.25768 
" clip-path="url(#pa53d0dba60)" style="fill: none; stroke: #2ca02c; stroke-width: 1.5; stroke-linecap: square"/>
   </g>
   <g id="patch_3">
    <path d="M 36.057363 148.63148 
L 36.057363 19.21625 
" style="fill: none; stroke: #000000; stroke-width: 0.8; stroke-linejoin: miter; stroke-linecap: square"/>
   </g>
   <g id="patch_4">
    <path d="M 36.057363 148.63148 
L 245.222329 148.63148 
" style="fill: none; stroke: #000000; stroke-width: 0.8; stroke-linejoin: miter; stroke-linecap: square"/>
   </g>
   <g id="text_14">
    <text style="font-size: 8px; font-family: 'Arial', 'Helvetica', 'DejaVu Sans', 'Liberation Sans', sans-serif; text-anchor: middle" x="140.639846" y="13.21625" transform="rotate(-0 140.639846 13.21625)">不同Batch Size下MLP训练损失曲线</text>
   </g>
   <g id="legend_1">
    <g id="line2d_15">
     <path d="M 186.433266 28.162441 
L 193.433266 28.162441 
L 200.433266 28.162441 
" style="fill: none; stroke: #1f77b4; stroke-width: 1.5; stroke-linecap: square"/>
    </g>
    <g id="text_15">
     <text style="font-size: 7px; font-family: 'Arial', 'Helvetica', 'DejaVu Sans', 'Liberation Sans', sans-serif; text-anchor: start" x="206.033266" y="30.612441" transform="rotate(-0 206.033266 30.612441)">batch=16</text>
    </g>
    <g id="line2d_16">
     <path d="M 186.433266 38.231777 
L 193.433266 38.231777 
L 200.433266 38.231777 
" style="fill: none; stroke: #ff7f0e; stroke-width: 1.5; stroke-linecap: square"/>
    </g>
    <g id="text_16">
     <text style="font-size: 7px; font-family: 'Arial', 'Helvetica', 'DejaVu Sans', 'Liberation Sans', sans-serif; text-anchor: start" x="206.033266" y="40.681777" transform="rotate(-0 206.033266 40.681777)">batch=64</text>
    </g>
    <g id="line2d_17">
     <path d="M 186.433266 48.301113 
L 193.433266 48.301113 
L 200.433266 48.301113 
" style="fill: none; stroke: #2ca02c; stroke-width: 1.5; stroke-linecap: square"/>
    </g>
    <g id="text_17">
     <text style="font-size: 7px; font-family: 'Arial', 'Helvetica', 'DejaVu Sans', 'Liberation Sans', sans-serif; text-anchor: start" x="206.033266" y="50.751113" transform="rotate(-0 206.033266 50.751113)">batch=256</text>
    </g>
   </g>
  </g>
 </g>
 <defs>
  <clipPath id="pa53d0dba60">
   <rect x="36.057363" y="19.21625" width="209.164966" height="129.41523"/>
  </clipPath>
 </defs>
</svg>
